# xmcd
#
# Track frame offsets:
# 150
# 16805
# 33762
# 50986
# 65845
# 82999
# 100087
# 114466
# 136301
# 151401
# 169368
# 184655
#
# Disc length: 2679 seconds
#
#
# Revision: 0
# Processed by: cddbd v1.5.1PL2 Copyright (c) Steve Scherf et al.
# Submitted via: FreeRIP 2.60 
#
DISCID=9b0a750c
DTITLE=Promo Only - Urban Club December '05 Disc A
DYEAR=2005
DGENRE=Hip-Hop
TTITLE0=Paul Wall - They Don't Know ft. Mike Jones (Album Version)
TTITLE1=Jim Jones - What You Been Drankin' On ft. Diddy, Paul Wall and Jha Jha
TTITLE2=Dem Franchize Boyz - Lean Wit It, Rock Wit It (Album Version)
TTITLE3=Ray Cash - Smokin' and Leanin'
TTITLE4=Avant - You Know What ft. Lil Wayne
TTITLE5=NORE - I'm A G
TTITLE6=50 Cent - Window Shopper (Dirty)
TTITLE7=Don Omar - Reggaeton Latino (Remix) ft. Fat Joe, NORE, and LDA
TTITLE8=Sheek Louch - One Name ft. Carl Thomas
TTITLE9=Memphis Bleek - The One ft. Rihanna
TTITLE10=Ghostface - Be Easy
TTITLE11=Busta Rhymes - Touch It
EXTD=
EXTT0=
EXTT1=
EXTT2=
EXTT3=
EXTT4=
EXTT5=
EXTT6=
EXTT7=
EXTT8=
EXTT9=
EXTT10=
EXTT11=
PLAYORDER=
